<?xml version="1.0" encoding="UTF-8" standalone="no"?>
<svg width="43px" height="43px" viewBox="0 0 43 43" version="1.1" xmlns="http://www.w3.org/2000/svg" xmlns:xlink="http://www.w3.org/1999/xlink" xmlns:sketch="http://www.bohemiancoding.com/sketch/ns">
    <!-- Generator: Sketch Beta 3.3.2 (12041) - http://www.bohemiancoding.com/sketch -->
    <title>Fill 2 Copy</title>
    <desc>Created with Sketch Beta.</desc>
    <defs></defs>
    <g id="Auto-Mute" stroke="none" stroke-width="1" fill="none" fill-rule="evenodd" sketch:type="MSPage">
        <path d="M21.7690611,0.27 C13.6600611,0.27 6.35106112,4.838 2.77006112,12.008 L0.195061123,10.753 L1.81406112,17.386 L8.03506112,14.573 L5.47106112,13.324 C8.55106112,7.18 14.8160611,3.27 21.7690611,3.27 C32.5790611,3.27 41.2290611,12.74 39.8490611,23.82 C38.9590611,31.04 33.6890611,37.14 26.6790611,39.06 C17.3090611,41.64 7.96906112,36.53 4.71906112,27.98 C4.62906112,27.76 4.48906112,27.75 4.38906112,27.77 L4.29906112,27.8 L4.28906112,27.81 L2.04906112,28.61 C2.04906112,28.61 2.02906112,28.62 1.99906112,28.63 C1.93906112,28.67 1.83906112,28.75 1.86906112,28.92 C5.18906112,37.83 14.1790611,43.57 23.8290611,42.63 C34.5090611,41.59 42.8890611,32.45 42.9990611,21.72 C43.1090611,9.91 33.5390611,0.27 21.7690611,0.27" id="Fill-2-Copy" fill="#FFFFFF" sketch:type="MSShapeGroup" transform="translate(21.597531, 21.500232) rotate(-330.000000) translate(-21.597531, -21.500232) "></path>
    </g>
</svg>